# xmcd
# 
# Track frame offsets:
#     150
#     25689
#     41877
#     76935
#     106509
#     131186
#     144230
#     170475
#     190899
#     208674
#     229234
#     251044
#     263852
# 
# Disc length: 3762
# 
# Revision: 0
# Processed by: cddbd v1.5.2PL0 Copyright (c) Steve Scherf et al.
# Submitted via: fre:ac v1.0.17
# 
DISCID=b10eb00d
DTITLE=Various Artist - One For The Street Vol.1
DYEAR=0
DGENRE=Blues
TTITLE0=Eiji Otake - Hikousen
TTITLE1=Eiji Otake - Akatonbo
TTITLE2=Kenichi Tsuboyama - Kimiate no tegami
TTITLE3=Kenichi Tsuboyama - A Song For AYA
TTITLE4=Kenichi Tsuboyama - Zan-Zou
TTITLE5=Kenji Yamahira - Tairikujouka
TTITLE6=Kenji Yamahira - Kiseki no Daichi
TTITLE7=Rupay - Shiroi hana no sougen
TTITLE8=Rupay - Condor todeiku
TTITLE9=Rupay - Koohiirumba
TTITLE10=The Geisha Strings Quartet - Summer Time
TTITLE11=The Geisha Strings Quartet - Furusato
TTITLE12=The Geisha Strings Quartet - Amazing Grace
EXTD=
EXTT0=
EXTT1=
EXTT2=
EXTT3=
EXTT4=
EXTT5=
EXTT6=
EXTT7=
EXTT8=
EXTT9=
EXTT10=
EXTT11=
EXTT12=
PLAYORDER=
